<?xml version="1.0" encoding="iso-8859-1"?>
<!-- Generator: Adobe Illustrator 18.1.1, SVG Export Plug-In . SVG Version: 6.00 Build 0)  -->
<svg version="1.1" id="Capa_1" xmlns="http://www.w3.org/2000/svg" xmlns:xlink="http://www.w3.org/1999/xlink" x="0px" y="0px"
	 viewBox="0 0 52.663 52.663" style="enable-background:new 0 0 52.663 52.663;" xml:space="preserve">
<g>
	<path style="fill:#030104;" d="M40.571,8.139c-0.169,0.075-0.352,0.18-0.562,0.255c-0.106,0.032-0.215,0.065-0.326,0.099
		c-0.107,0.043-0.227,0.04-0.338,0.06c-0.224,0.049-0.447,0.012-0.642,0.003c-0.092-0.026-0.181-0.05-0.265-0.074
		c-0.094-0.012-0.123-0.069-0.176-0.089c-0.046-0.034-0.076-0.029-0.125-0.074c-0.206-0.579-0.465-1.162-0.788-1.745
		c-1.317-2.376-3.624-3.559-6.064-3.737c-0.003-0.005-0.003-0.009-0.007-0.014c-0.02-0.053-0.077-0.082-0.089-0.176
		c-0.023-0.084-0.048-0.173-0.074-0.265c-0.009-0.195-0.045-0.418,0.003-0.642c0.021-0.111,0.018-0.232,0.061-0.339
		c0.034-0.111,0.068-0.22,0.1-0.326c0.074-0.21,0.181-0.393,0.256-0.562C31.739,0.205,31.875,0,31.875,0s-0.186,0.168-0.465,0.419
		c-0.117,0.147-0.276,0.308-0.411,0.509c-0.064,0.104-0.13,0.212-0.197,0.322c-0.076,0.107-0.11,0.237-0.166,0.359
		c-0.119,0.243-0.156,0.522-0.204,0.784c0.001,0.138,0.002,0.271,0.003,0.397c-0.001,0.009,0.004,0.02,0.004,0.029
		c-3.058,0.067-6.168,1.654-7.694,4.47c-0.107,0.197-0.209,0.397-0.315,0.595c6.334,0.058,11.46,5.068,11.724,11.351
		c0.317-0.269,0.624-0.36,0.948-0.631c3.001-2.514,4.168-6.01,3.31-9.01c-0.039,0-0.081,0-0.118,0c-0.122,0-0.269-0.228-0.392-0.259
		c-0.116-0.038-0.266-0.17-0.32-0.207c-0.066-0.037-0.123-0.114-0.171-0.141c-0.095-0.053-0.149-0.106-0.149-0.106
		c-0.183-0.103-0.276-0.309-0.253-0.508c-0.018,0.192,0.074,0.385,0.253,0.486c0,0,0.054,0.031,0.149,0.084
		c0.047,0.027,0.105,0.059,0.171,0.096c0.055,0.037,0.204,0.258,0.32,0.296c0.123,0.03,0.27,0.258,0.392,0.258
		c0.038,0,0.08,0,0.118,0c0.091,0,0.182-0.176,0.279-0.176c0.262-0.048,0.541-0.174,0.784-0.293c0.122-0.056,0.252-0.134,0.359-0.21
		c0.109-0.067,0.217-0.155,0.322-0.219c0.201-0.136,0.362-0.305,0.509-0.422c0.252-0.279,0.419-0.471,0.419-0.471
		S40.879,7.935,40.571,8.139z M31.188,6.427c-0.667,0.153-1.283-0.056-1.377-0.466c-0.093-0.411,0.371-0.867,1.037-1.02
		c0.667-0.153,1.283,0.056,1.377,0.466C32.319,5.817,31.855,6.274,31.188,6.427z M36.554,10.646
		c-0.153,0.666-0.609,1.131-1.02,1.037c-0.41-0.094-0.619-0.71-0.466-1.377s0.609-1.131,1.02-1.037
		C36.498,9.363,36.707,9.98,36.554,10.646z M32.301,16.177l-0.461-0.191l0.191-0.462c-0.977-0.406-1.465-1.482-1.172-2.475
		c0.107,0.134,0.215,0.267,0.316,0.406c1.09,1.493,1.838,3.248,2.134,5.157c0.011,0.071,0.026,0.14,0.036,0.211
		C32.348,18.366,31.878,17.199,32.301,16.177z M22.101,9.141c-0.187-0.077-0.352-0.187-0.505-0.311
		c0.043-0.079,0.083-0.16,0.126-0.239c0.244,0.002,0.483,0.025,0.724,0.042c2.646,0.185,5.044,1.231,6.925,2.866
		c0.195,0.169,0.389,0.339,0.572,0.521c-0.391,0.076-0.796,0.037-1.172-0.118c-0.507-0.21-0.901-0.604-1.111-1.111l-0.462,0.191
		l-0.191-0.462c-1.045,0.432-2.248-0.065-2.682-1.11l-0.462,0.192L23.672,9.14C23.164,9.35,22.606,9.35,22.101,9.141z M17.076,23.19
		l2.092,0.255c-0.619,0.484-1.428,0.548-2.1,0.248C17.071,23.526,17.07,23.357,17.076,23.19z M19.168,23.445L19.168,23.445
		L19.168,23.445L19.168,23.445z M28.021,42.839c-0.017-0.018-0.029-0.035-0.047-0.053c0,0-0.118,0.093-0.299,0.253l0.15,0.21
		c0.401,0.569,0.673,0.972,0.791,1.148c0.104,0.091,0.168,0.386,0.168,0.535c0-0.149-0.065-0.363-0.168-0.455
		c-0.118-0.176-0.39-0.619-0.791-1.189l-0.15-0.23c-0.047,0.042-0.095,0.075-0.15,0.125c-0.162-0.365-0.315-0.735-0.465-1.101
		L26.836,41.7c-0.3-0.498-0.639-1.064-0.932-1.708c0.293,0.644,0.632,1.208,0.932,1.706l0.224,0.379
		c-0.426-1.039-0.797-2.082-1.09-3.14c-0.014-0.05-0.025-0.101-0.039-0.152c-0.154,0.108-0.319,0.195-0.489,0.267l-0.063-0.128
		l-0.132-0.333c0.157-0.065,0.31-0.143,0.45-0.248l0.181,0.242c-0.019-0.075-0.039-0.15-0.058-0.225
		c-0.231-0.932-0.395-1.878-0.476-2.846c0-0.005-0.001-0.011-0.002-0.016c-0.644-0.3-1.163-0.858-1.377-1.591l0.479-0.141
		c0.143,0.49,0.459,0.878,0.856,1.136c-0.01-0.222-0.009-0.447-0.01-0.672c-0.001-0.362,0.011-0.728,0.036-1.098
		c0.004-0.055,0.009-0.111,0.013-0.166c-0.719-0.007-1.367-0.32-1.83-0.814c-0.07-0.403-0.107-0.813-0.132-1.23
		c0.232,0.899,1.061,1.551,2,1.539c0.002-0.021,0.002-0.042,0.005-0.063c0.006-0.055,0.006-0.108,0.013-0.164
		c0.133-1.073,0.374-2.052,0.687-2.972c0.003-0.008,0.005-0.018,0.008-0.026c-0.052-0.056-0.109-0.104-0.157-0.165
		c-0.419-0.537-0.605-1.206-0.521-1.882c-0.675-0.084-1.278-0.424-1.697-0.96c-0.064-0.082-0.112-0.172-0.165-0.26
		c0.039-0.339,0.09-0.677,0.154-1.012c0.051,0.348,0.183,0.68,0.404,0.964c0.337,0.432,0.823,0.706,1.368,0.773l-0.06,0.495
		l0.492,0.06c-0.064,0.521,0.075,1.032,0.381,1.453c0.083-0.213,0.174-0.42,0.266-0.626c0.19-0.426,0.398-0.838,0.623-1.237
		c0.034-0.061,0.067-0.123,0.102-0.184c-1.34-0.222-2.285-1.459-2.119-2.819c-0.419-0.052-0.803-0.213-1.139-0.447
		c0.002-0.013,0.006-0.03,0.008-0.043c0.054-0.153,0.094-0.307,0.142-0.461c0.298,0.247,0.659,0.407,1.053,0.455
		c0,0-0.06,0.489-0.061,0.494l0.493,0.061c-0.138,1.124,0.664,2.149,1.787,2.288l-0.028,0.228c0.029-0.048,0.053-0.101,0.083-0.149
		c0.007,0.006,0.015,0.011,0.021,0.017c1.752,1.608,4.764,2.666,7.08,1.75c-0.463,0.183-2.645-1.755-2.984-2.119
		c-0.593-0.637-1.024-1.428-1.154-2.273c-0.024-0.158-0.038-0.317-0.04-0.478c-0.943-0.676-1.339-1.933-0.876-3.049
		c-1.3-0.539-1.919-2.035-1.38-3.335l0.462,0.191c-0.21,0.507-0.21,1.064-0.001,1.571s0.604,0.901,1.111,1.111l-0.191,0.462
		l0.462,0.191c-0.336,0.811-0.106,1.714,0.5,2.282c0.102-0.102,0.215-0.2,0.32-0.3c0.825-0.795,1.703-1.571,2.615-2.346
		c-0.01-0.233-0.04-0.459-0.063-0.688c-0.009-0.089-0.013-0.18-0.024-0.269l-0.14,0.337c-1.3-0.539-1.919-2.035-1.38-3.335
		c-1.3-0.539-1.919-2.035-1.38-3.335l0.125,0.052c-0.022-0.026-0.047-0.049-0.07-0.074c-0.02-0.023-0.042-0.044-0.063-0.067
		c-0.041-0.046-0.085-0.09-0.127-0.135c-0.253,0.08-0.51,0.131-0.765,0.131c-1.001,0-1.954-0.593-2.361-1.575
		c-0.318,0.132-0.649,0.194-0.974,0.194c-1.002,0-1.955-0.593-2.362-1.574c-0.315,0.131-0.647,0.196-0.979,0.196
		c-0.331,0-0.661-0.065-0.975-0.195c-0.2-0.083-0.38-0.196-0.55-0.323c-0.014,0.026-0.027,0.052-0.041,0.079
		c-0.117,0.22-0.233,0.442-0.349,0.663c-0.093,0.178-0.189,0.355-0.281,0.534c0.505,0.209,1.063,0.209,1.569-0.001l0.191,0.462
		l0.462-0.191c0.21,0.507,0.604,0.901,1.111,1.111c0.505,0.209,1.063,0.209,1.571-0.001l0.191,0.461l0.462-0.191
		c0.21,0.507,0.604,0.901,1.111,1.111c0.118,0.049,0.24,0.084,0.363,0.11c-0.112,0.094-0.252,0.21-0.444,0.374
		c-0.649-0.236-1.207-0.717-1.492-1.404c-0.311,0.133-0.643,0.199-0.974,0.199s-0.661-0.065-0.976-0.195
		c-0.629-0.26-1.12-0.751-1.381-1.381c-0.315,0.131-0.647,0.196-0.979,0.196c-0.331,0-0.661-0.065-0.975-0.195
		c-0.011-0.004-0.02-0.012-0.031-0.016c0,0.001-0.001,0.002-0.002,0.003c-0.187,0.371-0.361,0.748-0.539,1.123
		c-0.073,0.154-0.15,0.307-0.222,0.462c0.565,0.449,1.346,0.595,2.059,0.299l0.191,0.462l0.462-0.191
		c0.21,0.507,0.604,0.901,1.111,1.111c0.506,0.209,1.063,0.209,1.571-0.001l0.191,0.462l0.462-0.191
		c0.064,0.155,0.15,0.293,0.245,0.423l-0.339,0.376c-0.145-0.182-0.274-0.382-0.368-0.607c-0.318,0.132-0.649,0.194-0.974,0.194
		c-1.001,0-1.954-0.593-2.361-1.575c-0.318,0.132-0.649,0.194-0.974,0.194c-0.545,0-1.066-0.188-1.502-0.506
		c-0.014,0.026-0.04,0.048-0.058,0.073c-0.525,0.748-2.748,1.069-3.469,1.068c-1.788-0.002-2.844-0.929-4.049-2.083
		c-0.203-0.232-0.319-0.365-0.319-0.365s0.031,0.171,0.084,0.469c0.078,0.29,0.089,0.777,0.31,1.278
		c0.858,1.941,2.253,3.565,4.128,4.454c0.494,0.234,1.015,0.429,1.576,0.552c-0.016,0.074-0.026,0.148-0.041,0.222
		c0.46,0.012,0.927-0.12,1.317-0.425l0.308,0.394c-0.465,0.365-1.02,0.541-1.57,0.541c-0.049,0-0.096-0.013-0.145-0.016
		c-0.001,0.006-0.002,0.013-0.003,0.019c-0.077,0.413-0.151,0.825-0.21,1.237c-0.028,0.195-0.048,0.387-0.072,0.581
		c0.473,0.022,0.956-0.11,1.359-0.424l0.308,0.394c-0.329,0.258-0.704,0.417-1.089,0.49l-0.641-0.042
		c-0.011,0.1-0.028,0.25-0.038,0.35c-0.042,0.442-0.068,0.912-0.085,1.359l2.443,0.31l0.351,0.055
		c0.279,0.356,0.653,0.589,1.058,0.703c-0.042,0.16-0.081,0.319-0.118,0.481c-0.51-0.14-0.983-0.428-1.333-0.875l-0.091,0.742
		l-0.198-0.024l0.289-0.718l0.393-0.309l-0.351-0.043l-0.351-0.043l0.308,0.394c-0.46,0.36-1.207,0.535-1.756,0.539l-0.234-0.029
		c-0.09-0.027-0.246-0.072-0.836-0.127c0,0.025,0,0.051,0,0.076l0.417,0.047c0.005,0.539,0.024,1.079,0.064,1.619
		c0.008,0.112,0.014,0.224,0.024,0.336c0.252,0.134,0.526,0.22,0.812,0.228c0.534,0.022,1.035-0.146,1.429-0.5
		c0.012-0.011,0.027-0.018,0.039-0.03l0.087,0.033l0.257,0.098c-0.477,0.45-1.097,0.464-1.751,0.464c-0.024,0-0.048,0-0.073,0
		c-0.268,0-0.525-0.018-0.771-0.059c0.017,0.178,0.039,0.355,0.061,0.533c0.089,0.751,0.206,1.501,0.362,2.246
		c0.041,0.196,0.09,0.391,0.136,0.587c0.497-0.041,0.981-0.256,1.343-0.651l0.368,0.338c-0.433,0.473-1.007,0.732-1.599,0.798
		c0.002,0.007,0.003,0.014,0.005,0.02c0.298,1.171,0.682,2.32,1.142,3.437c0.07,0.17,0.142,0.34,0.216,0.509
		c0.339-0.183,0.622-0.455,0.815-0.799l0.436,0.244c-0.249,0.441-0.614,0.791-1.053,1.018c0.008,0.016,0.016,0.032,0.024,0.049
		c0.452,0.972,0.97,1.908,1.544,2.806c0.113,0.176,0.229,0.349,0.346,0.522c0.28-0.06,0.552-0.175,0.795-0.358l0.163,0.218
		c0.032,0.069,0.068,0.136,0.102,0.204c-0.235,0.17-0.493,0.296-0.764,0.377c0.066,0.093,0.14,0.18,0.208,0.272
		c0.926,1.253,1.983,2.399,3.161,3.409c0.174,0.2,0.347,0.401,0.523,0.595l0.668,0.737l0.462,0.409l0.139,0.123
		c0.735,0.64,1.161,1.145,1.161,1.145s-0.426-0.424-1.161-1.064l-0.137-0.165c-0.236,0.255-0.371,0.408-0.371,0.408
		c0.018,0.018,0.035,0.019,0.052,0.037c-1.49,2.058-0.715,3.645,3.765,8.125c0,0,1.805-0.951,0.647-5.411
		c4.46,1.158,5.409-0.648,5.409-0.648C31.672,42.124,30.079,41.349,28.021,42.839z M29.507,15.827
		c0.209,0.506,0.604,0.901,1.111,1.111L30.427,17.4l0.462,0.191c-0.21,0.507-0.21,1.064-0.001,1.571s0.604,0.901,1.111,1.111
		l-0.193,0.462c-0.63-0.261-1.121-0.752-1.381-1.381c-0.261-0.63-0.26-1.324,0.001-1.954c-0.63-0.261-1.121-0.752-1.381-1.381
		c-0.261-0.63-0.26-1.324,0.001-1.954l0.462,0.191C29.298,14.763,29.298,15.321,29.507,15.827z M28.683,13.899
		c0.104-0.158,0.105-0.356,0.018-0.514c0.076-0.023,0.153-0.039,0.227-0.07l0.191,0.462c-0.146,0.061-0.296,0.103-0.445,0.135
		C28.675,13.911,28.683,13.899,28.683,13.899z M20.143,26.046c0.12,0.127,0.255,0.228,0.397,0.318
		c-0.024,0.176-0.054,0.352-0.072,0.529c-0.248-0.129-0.485-0.289-0.688-0.503L20.143,26.046z M19.453,29.586l0.338-0.368
		c0.163,0.149,0.347,0.258,0.538,0.345l0.018,0.322c0.004,0.076,0.011,0.154,0.015,0.23C20.035,30.005,19.723,29.833,19.453,29.586z
		 M20.468,33.795l0.244-0.436c0.014,0.007,0.028,0.011,0.042,0.018c0.039,0.194,0.069,0.391,0.117,0.581
		C20.735,33.91,20.597,33.867,20.468,33.795z M23.942,32.816c-0.08,0.142-0.173,0.274-0.276,0.396
		c-0.035-0.196-0.059-0.398-0.087-0.599L23.942,32.816z M23.779,27.121c-0.015,0.548,0.184,1.069,0.561,1.467
		c0.375,0.398,0.885,0.625,1.434,0.64l-0.014,0.5c-0.682-0.019-1.315-0.301-1.784-0.795c0,0,0,0,0-0.001
		c-0.304-0.322-0.504-0.711-0.61-1.13c0.01-0.23,0.027-0.463,0.046-0.691L23.779,27.121z M27.365,15.791l0.01-0.014
		c0.348,0.047,0.711,0.015,1.058-0.129l0.191,0.462c-0.318,0.132-0.649,0.194-0.974,0.194c-0.184,0-0.362-0.04-0.54-0.079
		L27.365,15.791z M26.418,17.407c0.011,0.302,0.081,0.601,0.226,0.877c0.254,0.486,0.683,0.843,1.206,1.007l-0.149,0.477
		l0.477,0.149c-0.338,1.08,0.266,2.233,1.346,2.571l-0.151,0.478c-1.343-0.421-2.094-1.855-1.674-3.198
		c-0.651-0.204-1.183-0.648-1.499-1.252c-0.066-0.125-0.114-0.256-0.157-0.388C26.166,17.878,26.289,17.633,26.418,17.407z
		 M26.082,21.411c-0.138,1.123,0.664,2.149,1.787,2.287l-0.061,0.496c-1.397-0.17-2.394-1.446-2.222-2.843
		c-0.304-0.037-0.583-0.135-0.841-0.266c0.05-0.132,0.093-0.267,0.152-0.395l0.027-0.07c0.219,0.119,0.461,0.203,0.723,0.235
		l-0.061,0.496L26.082,21.411z M18.519,14.92l0.443-0.233c0.525,1.003,1.767,1.392,2.77,0.865l0.232,0.443l0.442-0.231h0.001v0.001
		c0.254,0.486,0.682,0.843,1.205,1.007c0.256,0.08,0.52,0.107,0.78,0.086c-0.11,0.151-0.226,0.287-0.329,0.451l-0.03,0.043
		c-0.191-0.015-0.382-0.044-0.57-0.103c-0.65-0.205-1.182-0.65-1.499-1.254v0.001c-0.377,0.197-0.782,0.291-1.18,0.291
		C19.864,16.287,18.974,15.789,18.519,14.92z M22.848,19.112c-0.465,0.365-1.02,0.541-1.57,0.541c-0.759,0-1.51-0.336-2.013-0.978
		l0.394-0.309c0.698,0.892,1.989,1.049,2.881,0.352L22.848,19.112z M20.633,21.593c-0.001,0-0.001,0-0.002,0H20.63l-1.063-0.019
		c-0.238-0.153-0.457-0.339-0.637-0.569l0.393-0.308c0.338,0.432,0.824,0.707,1.368,0.773c0.423,0.053,0.841-0.03,1.21-0.228
		c-0.075,0.19-0.152,0.374-0.227,0.57c-0.008,0.021,0.023,0.044,0.015,0.066c-0.025,0.009-0.037,0.012-0.037,0.019v-0.001
		L20.633,21.593z M21.572,22.082c-0.056,0.145-0.114,0.298-0.182,0.476c0.047-0.123,0.09-0.322,0.13-0.482L21.572,22.082z
		 M24.884,40.52l-0.713-1.026l-0.149-0.279l-0.005-0.01l-0.328-0.612l-0.187-0.35c-0.043-0.072-0.074-0.156-0.114-0.231
		c-0.292-0.543-0.533-1.138-0.776-1.775c-0.09-0.235-0.181-0.472-0.255-0.648c-0.077-0.299-0.163-0.6-0.251-0.903
		c-0.05-0.174-0.096-0.356-0.145-0.534c-0.006-0.021-0.011-0.041-0.017-0.062c-0.044-0.159-0.09-0.313-0.13-0.475
		c-0.042-0.175-0.064-0.36-0.098-0.539c-0.039-0.207,0.052-0.408,0.029-0.623c-0.14-0.712-0.093-1.444-0.093-2.202
		c0-0.005,0-0.01,0-0.016c0-0.136-0.159-0.265-0.166-0.403l-0.076-0.09l-0.066-0.514l-0.013-0.077l0.132-0.622
		c0.024-0.458,0.19-0.902,0.19-1.344c0-0.006,0-0.011,0-0.017c0-0.163-0.06-0.327-0.04-0.49c0.024-0.197-0.007-0.393,0.027-0.591
		c0.011-0.063-0.013-0.125-0.001-0.189c0.037-0.345,0.093-0.686,0.173-1.025c0.006-0.028-0.006-0.056,0.001-0.084
		c0.044-0.18,0.096-0.355,0.146-0.533c0.042-0.152,0.081-0.307,0.125-0.457c0.009-0.032,0.017-0.064,0.026-0.096
		c0.087-0.301,0.173-0.6,0.229-0.835c0.093-0.234,0.182-0.467,0.271-0.697c0.034-0.088,0.068-0.17,0.102-0.257
		c0.073-0.189,0.147-0.375,0.221-0.557c0.047-0.116,0.098-0.233,0.147-0.346c0.031-0.071,0.069-0.135,0.101-0.204
		c0.106-0.228,0.208-0.459,0.334-0.672l0.069-0.13l0.029-0.055l0.308-0.58l0.223-0.42l0.006-0.009l0.747-1.083
		c0.03-0.047,0.065-0.087,0.095-0.133c0.12-0.18,0.244-0.355,0.376-0.522c0.023-0.029,0.042-0.062,0.065-0.091
		c-0.033,0.06-0.064,0.13-0.097,0.191c-0.079,0.147-0.155,0.3-0.231,0.457c-0.033,0.068-0.069,0.129-0.101,0.199l-0.559,1.142
		l-0.057,0.145l-0.245,0.623l-0.168,0.428c-0.02,0.043-0.032,0.09-0.051,0.133c-0.001,0.003-0.002,0.005-0.003,0.008
		c-0.118,0.274-0.22,0.555-0.309,0.841c-0.048,0.154-0.093,0.307-0.138,0.461c-0.021,0.071-0.044,0.143-0.064,0.214
		c-0.053,0.187-0.108,0.378-0.168,0.577c-0.004,0.015-0.01,0.031-0.015,0.046c-0.049,0.162-0.1,0.326-0.162,0.507
		c-0.049,0.251-0.103,0.502-0.157,0.756c-0.004,0.019-0.008,0.039-0.012,0.058c-0.009,0.044-0.018,0.09-0.027,0.135
		c-0.03,0.139-0.057,0.28-0.085,0.42c-0.017,0.084-0.035,0.167-0.051,0.251c-0.014,0.072-0.03,0.143-0.044,0.216
		c-0.004,0.021-0.006,0.041-0.01,0.062c-0.063,0.352-0.118,0.705-0.151,1.057c-0.004,0.025-0.005,0.05-0.009,0.075
		c-0.022,0.128-0.029,0.257-0.045,0.385c-0.024,0.186-0.05,0.372-0.065,0.558c-0.004,0.052-0.014,0.103-0.018,0.155
		c-0.03,0.418-0.045,0.834-0.058,1.243l-0.023,0.653l-0.004,0.113c0.003,0.061,0.162,0.122,0.164,0.184
		c0.011,0.186,0.182,0.373,0.182,0.559c0,0.003,0,0.006,0,0.01c0,0.078-0.149,0.157-0.147,0.235
		c0.009,0.265-0.059,0.531-0.043,0.796c0.003,0.049-0.036,0.098-0.033,0.146c0.027,0.396,0.048,0.788,0.116,1.166
		c0.017,0.173,0.04,0.339,0.064,0.51c0.026,0.184,0.043,0.37,0.075,0.551c0.03,0.17,0.061,0.336,0.095,0.504
		c0.003,0.013,0.004,0.025,0.006,0.038c0.044,0.216,0.085,0.435,0.13,0.647c0.053,0.249,0.105,0.497,0.173,0.812
		c0.124,0.352,0.225,0.708,0.326,1.059c0.158,0.555,0.322,1.128,0.554,1.632l0.011,0.027l0.253,0.639l0.204,0.516l0.01,0.025
		l0.02,0.051l0.536,1.091c0.143,0.315,0.295,0.61,0.449,0.888C25.256,41.065,25.064,40.804,24.884,40.52z M25.161,23.835h0.003
		v0.003c-0.001,0-0.002-0.001-0.003-0.001C25.161,23.836,25.161,23.836,25.161,23.835z M25.412,27.189h0.004l0,0
		C25.415,27.19,25.413,27.189,25.412,27.189L25.412,27.189z M27.4,42.65l0.276,0.388c-0.047,0.042-0.095,0.085-0.149,0.135
		c-0.162-0.365-0.315-0.731-0.465-1.096L27.4,42.65z"/>
</g>
<g>
</g>
<g>
</g>
<g>
</g>
<g>
</g>
<g>
</g>
<g>
</g>
<g>
</g>
<g>
</g>
<g>
</g>
<g>
</g>
<g>
</g>
<g>
</g>
<g>
</g>
<g>
</g>
<g>
</g>
</svg>
